<svg width="17" height="15" viewBox="0 0 17 15" fill="none" xmlns="http://www.w3.org/2000/svg">
<path d="M8.19044 10.4225C9.42322 10.4225 10.4226 9.42316 10.4226 8.19039C10.4226 6.95761 9.42322 5.95825 8.19044 5.95825C6.95767 5.95825 5.95831 6.95761 5.95831 8.19039C5.95831 9.42316 6.95767 10.4225 8.19044 10.4225Z" stroke="black" stroke-width="1.5"/>
<path d="M0.75 8.46132C0.75 6.18082 0.75 5.04095 1.30729 4.2225C1.54952 3.86684 1.8595 3.56242 2.21949 3.32666C2.7552 2.97473 3.42633 2.84899 4.45385 2.80434C4.94418 2.80434 5.36605 2.43976 5.46203 1.96729C5.53538 1.62121 5.72597 1.31107 6.00157 1.08928C6.27718 0.867494 6.62091 0.74766 6.97467 0.750035H9.40621C10.1413 0.750035 10.7745 1.25971 10.9188 1.96729C11.0148 2.43976 11.4367 2.80434 11.927 2.80434C12.9538 2.84899 13.6249 2.97548 14.1614 3.32666C14.5223 3.56327 14.8325 3.86759 15.0736 4.2225C15.6309 5.04095 15.6309 6.18082 15.6309 8.46132C15.6309 10.7418 15.6309 11.881 15.0736 12.7002C14.8314 13.0558 14.5214 13.3602 14.1614 13.596C13.3273 14.1429 12.1659 14.1429 9.8437 14.1429H6.53717C4.21501 14.1429 3.05356 14.1429 2.21949 13.596C1.8597 13.3599 1.54997 13.0553 1.30803 12.6994C1.14638 12.4586 1.02734 12.1918 0.9561 11.9107M13.3987 5.95835H12.6547" stroke="black" stroke-width="1.5" stroke-linecap="round"/>
</svg>
